<?xml version="1.0" encoding="UTF-8"?>
<svg width="222px" height="61px" viewBox="0 0 222 61" version="1.1" xmlns="http://www.w3.org/2000/svg" xmlns:xlink="http://www.w3.org/1999/xlink">
    <!-- Generator: Sketch 50.2 (55047) - http://www.bohemiancoding.com/sketch -->
    <title>logo-duino</title>
    <desc>Created with Sketch.</desc>
    <defs></defs>
    <g id="Page-1" stroke="none" stroke-width="1" fill="none" fill-rule="evenodd">
        <g id="logo-duino">
            <path d="M91.532,46 C100.728,46 107.592,40.676 107.592,31.304 C107.592,21.932 100.728,16.652 91.488,16.652 L78.376,16.652 L78.376,46 L91.532,46 Z M91.488,38.256 L87.264,38.256 L87.264,24.396 L91.532,24.396 C96.284,24.396 98.572,27.344 98.572,31.304 C98.572,35 95.932,38.256 91.488,38.256 Z M125.28,46.528 C135.18,46.528 139.756,41.204 139.756,33.9 L139.756,16.652 L130.736,16.652 L130.736,33.636 C130.736,36.452 128.888,38.696 125.28,38.696 C121.628,38.696 119.78,36.452 119.78,33.636 L119.78,16.652 L110.76,16.652 L110.76,33.944 C110.76,41.204 115.38,46.528 125.28,46.528 Z M153.396,46 L153.396,16.652 L144.508,16.652 L144.508,46 L153.396,46 Z M186.396,46 L186.396,16.652 L177.508,16.652 L177.508,30.556 L167.3,16.652 L158.148,16.652 L158.148,46 L167.036,46 L167.036,31.128 L177.86,46 L186.396,46 Z M205.624,46.528 C214.688,46.528 221.684,40.368 221.684,31.348 C221.684,22.328 214.688,16.168 205.624,16.168 C196.56,16.168 189.564,22.328 189.564,31.348 C189.564,40.368 196.56,46.528 205.624,46.528 Z M205.624,38.696 C201.356,38.696 198.584,35.44 198.584,31.348 C198.584,27.256 201.356,24 205.624,24 C209.892,24 212.664,27.256 212.664,31.348 C212.664,35.44 209.892,38.696 205.624,38.696 Z" id="DUINO" fill="#333333" fill-rule="nonzero"></path>
            <g id="Group">
                <rect id="Rectangle-4" fill="#0088CC" fill-rule="nonzero" x="0" y="0" width="61" height="61" rx="17"></rect>
                <path d="M60.6325301,40.7891566 C60.6325301,40.7891566 38.3700761,40.3354215 34.2835543,41.5187559 C22.8556945,44.9001049 25.7700414,53.5039555 28.6915799,55.9184946 C33.0052691,59.2532438 41.0817274,57.6396556 43.345332,50.5740272 C45.6089366,43.5083988 38.0060441,33.4672953 38.0060441,33.4672953" id="Line" stroke="#FFFFFF" stroke-width="4" stroke-linecap="square"></path>
                <path d="M16.373175,22.2542805 L33.2362947,10.6370448 C33.2362947,10.6370448 42.6358586,23.9191081 42.2705918,27.3018005 C41.3177212,31.8335418 33.9928991,36.0406459 30.8927715,36.0406459 C27.8900296,35.829097 16.373175,22.2542805 16.373175,22.2542805 Z" id="Rectangle-2" fill="#FFFFFF" fill-rule="nonzero"></path>
                <path d="M27.6257425,19.1023148 C30.872996,16.8549779 33.3468641,14.0683165 33.3468641,11.0240964 C33.3468641,7.97987623 26.7723539,10.0323613 22.2333315,13.1088161 C17.694309,16.185271 15.2887598,20.9037806 16.3884569,22.5317522 C17.488154,24.1597238 24.378489,21.3496516 27.6257425,19.1023148 Z" id="Oval-1" stroke="#0088CC" stroke-width="0.5" fill="#FFFFFF" fill-rule="nonzero"></path>
                <path d="M12.8466532,10.6127135 C12.3364344,9.98264585 12.4298521,9.06128895 13.0651314,8.54684993 C13.6960123,8.03597264 14.6195065,8.13068168 15.1312751,8.76266321 L22.0713485,17.3329402 C22.5815672,17.9630079 22.4881496,18.8843647 21.8528703,19.3988038 C21.2219894,19.9096811 20.2984952,19.814972 19.7867266,19.1829905 L12.8466532,10.6127135 Z" id="Rectangle-3" stroke="#0088CC" stroke-width="0.5" fill="#FFFFFF" fill-rule="nonzero"></path>
                <path d="M20.1960508,5.4681352 C19.685832,4.83806753 19.7792497,3.91671064 20.414529,3.40227161 C21.0454099,2.89139433 21.9689041,2.98610337 22.4806726,3.6180849 L29.4207461,12.1883619 C29.9309648,12.8184295 29.8375472,13.7397864 29.2022679,14.2542255 C28.571387,14.7651027 27.6478928,14.6703937 27.1361242,14.0384122 L20.1960508,5.4681352 Z" id="Rectangle-3" stroke="#0088CC" stroke-width="0.5" fill="#FFFFFF" fill-rule="nonzero"></path>
            </g>
        </g>
    </g>
</svg>